<?xml version="1.0" encoding="utf-8"?>
<!-- Generator: Adobe Illustrator 15.0.0, SVG Export Plug-In . SVG Version: 6.00 Build 0)  -->
<!DOCTYPE svg PUBLIC "-//W3C//DTD SVG 1.1//EN" "http://www.w3.org/Graphics/SVG/1.1/DTD/svg11.dtd">
<svg version="1.1" id="レイヤー_1" xmlns:serif="http://www.serif.com/"
	 xmlns="http://www.w3.org/2000/svg" xmlns:xlink="http://www.w3.org/1999/xlink" x="0px" y="0px" width="1698.266px"
	 height="1323.832px" viewBox="0 0 1698.266 1323.832" enable-background="new 0 0 1698.266 1323.832" xml:space="preserve">
<g>
	<g transform="matrix(1,0,0,1,-235,-809)">
		<g transform="matrix(2.02015,0,0,2.02017,-51.8034,252.584)">
			<g>
				<g transform="matrix(0.495014,0,0,0.495007,-1818.69,-130.418)">
					
						<linearGradient id="SVGID_1_" gradientUnits="userSpaceOnUse" x1="18122.0977" y1="2068.1172" x2="18123.0977" y2="2068.1172" gradientTransform="matrix(1080.0027 0 0 -1079.9982 -19567644 2234818.5)">
						<stop  offset="0" style="stop-color:#8FC31F"/>
						<stop  offset="1" style="stop-color:#219228"/>
					</linearGradient>
					<path fill="url(#SVGID_1_)" d="M4810.424,819.886c-240.519,0-435.795,195.266-435.795,435.794
						c0,240.517,195.278,435.793,435.795,435.793c240.52,0,435.795-195.276,435.795-435.793
						C5246.22,1015.151,5050.943,819.886,4810.424,819.886z M4810.424,857.385c219.819,0,398.291,178.461,398.291,398.295
						c0,219.82-178.472,398.29-398.291,398.29c-219.818,0-398.291-178.47-398.291-398.29
						C4412.133,1035.846,4590.605,857.385,4810.424,857.385z"/>
				</g>
				<g transform="matrix(0.495014,0,0,0.495007,25.6434,-689.886)">
					
						<linearGradient id="SVGID_2_" gradientUnits="userSpaceOnUse" x1="-507.0058" y1="3198.3403" x2="-506.0081" y2="3198.3403" gradientTransform="matrix(1080.0027 0 0 -1079.9982 548112.75 3456587.75)">
						<stop  offset="0" style="stop-color:#8FC31F"/>
						<stop  offset="1" style="stop-color:#219228"/>
					</linearGradient>
					<path fill="url(#SVGID_2_)" d="M1084.64,1950.113c-51.496,0-100.002,32.091-138.606,88.691
						c-53.414,78.327-88.664,204.605-88.664,347.103c0,142.49,35.25,268.771,88.664,347.098
						c38.604,56.604,87.109,88.693,138.606,88.693s100-32.09,138.606-88.693c53.414-78.327,88.662-204.604,88.662-347.098
						s-35.248-268.771-88.662-347.103C1184.64,1982.203,1136.138,1950.113,1084.64,1950.113z M1084.64,1987.616
						c40.578,0,77.205,27.717,107.625,72.317c50.121,73.51,82.146,192.27,82.146,325.973c0,133.702-32.021,252.463-82.146,325.971
						c-30.42,44.604-67.047,72.318-107.625,72.318s-77.203-27.718-107.627-72.318c-50.121-73.508-82.146-192.271-82.146-325.971
						c0-133.705,32.022-252.465,82.146-325.973C1007.437,2015.333,1044.062,1987.616,1084.64,1987.616z"/>
				</g>
				<g transform="matrix(0.495014,0,0,0.495007,25.6434,-689.886)">
					
						<linearGradient id="SVGID_3_" gradientUnits="userSpaceOnUse" x1="-507.0073" y1="3198.3391" x2="-506.0073" y2="3198.3391" gradientTransform="matrix(1080.0027 0 0 -1079.9982 548113.3125 3456586.5)">
						<stop  offset="0" style="stop-color:#8FC31F"/>
						<stop  offset="1" style="stop-color:#219228"/>
					</linearGradient>
					<path fill="url(#SVGID_3_)" d="M1065.89,1968.864v834.083c0,10.354,8.399,18.75,18.75,18.75c10.349,0,18.75-8.396,18.75-18.75
						v-834.083c0-10.354-8.401-18.751-18.75-18.751S1065.89,1958.509,1065.89,1968.864z"/>
				</g>
				<g transform="matrix(1,0,0,1,0,-1.95737)">
					<g transform="matrix(0.495014,0,0,0.495007,27.0271,-689.886)">
						
							<linearGradient id="SVGID_4_" gradientUnits="userSpaceOnUse" x1="-520.9827" y1="3202.5198" x2="-519.9827" y2="3202.5198" gradientTransform="matrix(1080.0027 0 0 -1079.9982 563204.375 3460861)">
							<stop  offset="0" style="stop-color:#8FC31F"/>
							<stop  offset="1" style="stop-color:#219228"/>
						</linearGradient>
						<path fill="url(#SVGID_4_)" d="M751.769,2164.254h660.149c10.352,0,18.752-8.396,18.752-18.751
							c0-10.342-8.4-18.751-18.752-18.751H751.769c-10.349,0-18.75,8.409-18.75,18.751
							C733.019,2155.857,741.421,2164.254,751.769,2164.254z"/>
					</g>
					<g transform="matrix(0.495014,0,0,0.495007,27.0271,-510.694)">
						
							<linearGradient id="SVGID_5_" gradientUnits="userSpaceOnUse" x1="-520.9827" y1="2840.0676" x2="-519.9827" y2="2840.0676" gradientTransform="matrix(1080.0027 0 0 -1079.9982 563204.4375 3069540.75)">
							<stop  offset="0" style="stop-color:#8FC31F"/>
							<stop  offset="1" style="stop-color:#219228"/>
						</linearGradient>
						<path fill="url(#SVGID_5_)" d="M751.769,2290.951h660.149c10.352,0,18.752-8.396,18.752-18.752
							c0-10.341-8.4-18.751-18.752-18.751H751.769c-10.349,0-18.75,8.41-18.75,18.751
							C733.019,2282.553,741.421,2290.951,751.769,2290.951z"/>
					</g>
				</g>
				<g transform="matrix(3.03108e-17,-0.495007,0.495014,3.03104e-17,-823.316,788.432)">
					
						<linearGradient id="SVGID_6_" gradientUnits="userSpaceOnUse" x1="2664.0688" y1="5239.2578" x2="2665.0967" y2="5239.2578" gradientTransform="matrix(-1079.9908 0 0 1080.0134 2877770.75 -5655669)">
						<stop  offset="0" style="stop-color:#8FC31F"/>
						<stop  offset="1" style="stop-color:#219228"/>
					</linearGradient>
					<path fill="url(#SVGID_6_)" d="M581.823,2382.623v834.094c0,10.354,8.4,18.753,18.75,18.753c10.348,0,18.75-8.396,18.75-18.753
						v-834.094c0-10.354-8.402-18.752-18.75-18.752C590.223,2363.871,581.823,2372.27,581.823,2382.623z"/>
				</g>
			</g>
		</g>
	</g>
	
		<linearGradient id="SVGID_7_" gradientUnits="userSpaceOnUse" x1="-1078.2009" y1="677.1349" x2="620.0647" y2="677.1349" gradientTransform="matrix(1 0 0 1 1078.2002 471.0039)">
		<stop  offset="0" style="stop-color:#8FC31F"/>
		<stop  offset="1" style="stop-color:#219228"/>
	</linearGradient>
	<path fill="url(#SVGID_7_)" d="M-0.001,972.447h56.368v221.263h134.696v48.497H0L-0.001,972.447L-0.001,972.447z M301.949,1120.87
		c9.708-1.22,16.654-2.746,20.831-4.575c7.498-3.171,11.248-8.113,11.248-14.824c0-8.172-2.876-13.817-8.627-16.928
		c-5.751-3.111-14.193-4.668-25.322-4.668c-12.494,0-21.335,3.052-26.531,9.15c-3.712,4.518-6.186,10.614-7.42,18.303h-50.329
		c1.102-17.446,6.003-31.784,14.704-43.011c13.847-17.566,37.618-26.352,71.316-26.352c21.936,0,41.417,4.33,58.452,12.992
		c17.031,8.666,25.547,25.011,25.547,49.047v91.507c0,6.346,0.119,14.033,0.365,23.062c0.367,6.834,1.401,11.469,3.11,13.905
		c1.708,2.444,4.271,4.455,7.689,6.041v7.688h-56.737c-1.585-4.026-2.685-7.808-3.294-11.348c-0.61-3.537-1.098-7.563-1.465-12.078
		c-7.239,7.809-15.586,14.457-25.035,19.947c-11.29,6.465-24.055,9.698-38.29,9.698c-18.164,0-33.164-5.153-45.007-15.464
		c-11.843-10.309-17.763-24.918-17.763-43.832c0-24.523,9.524-42.276,28.575-53.256c10.448-5.979,25.813-10.249,46.092-12.812
		L301.949,1120.87z M333.844,1145.211c-3.342,2.075-6.713,3.752-10.114,5.032s-8.069,2.472-14.005,3.569l-11.873,2.195
		c-11.131,1.952-19.123,4.335-23.975,7.139c-8.216,4.759-12.322,12.142-12.322,22.146c0,8.906,2.509,15.345,7.527,19.306
		c5.018,3.968,11.119,5.949,18.305,5.949c11.398,0,21.897-3.294,31.498-9.883c9.602-6.587,14.588-18.604,14.959-36.056V1145.211z
		 M585.729,1054.162c13.059,10.8,19.59,28.703,19.59,53.715v134.331h-53.439V1120.87c0-10.492-1.393-18.544-4.177-24.158
		c-5.091-10.247-14.776-15.37-29.066-15.37c-17.563,0-29.614,7.504-36.154,22.509c-3.395,7.935-5.087,18.059-5.087,30.381v107.978
		h-52.16V1043.09h50.512v29.102c6.68-10.251,13.001-17.63,18.953-22.146c10.689-8.05,24.236-12.078,40.641-12.078
		C555.872,1037.967,572.666,1043.364,585.729,1054.162z M745.716,1042.541c12.672,5.247,22.906,14.887,30.705,28.916v-28.732H827.3
		v189.234c0,25.743-4.333,45.14-12.995,58.198c-14.888,22.446-43.437,33.674-85.65,33.674c-25.501,0-46.302-5.004-62.407-15.008
		c-16.104-10.005-25.013-24.952-26.72-44.837h56.735c1.462,6.099,3.84,10.491,7.137,13.176c5.61,4.762,15.066,7.138,28.365,7.138
		c18.79,0,31.356-6.285,37.701-18.852c4.146-8.05,6.225-21.594,6.225-40.627v-12.812c-5.005,8.541-10.373,14.946-16.107,19.216
		c-10.372,7.936-23.854,11.898-40.443,11.898c-25.622,0-46.092-8.996-61.404-26.995c-15.313-17.995-22.967-42.366-22.967-73.111
		c0-29.648,7.373-54.568,22.116-74.761c14.745-20.191,35.641-30.287,62.694-30.287
		C729.572,1037.967,738.282,1039.493,745.716,1042.541z M763.481,1185.567c8.385-9.211,12.577-23.886,12.577-44.017
		c0-18.909-3.98-33.309-11.94-43.189c-7.958-9.882-18.618-14.826-31.978-14.826c-18.228,0-30.802,8.602-37.729,25.807
		c-3.645,9.15-5.464,20.438-5.464,33.857c0,11.591,1.938,21.901,5.83,30.93c7.044,16.837,19.682,25.259,37.909,25.259
		C744.831,1199.384,755.096,1194.778,763.481,1185.567z M919.935,1042.725v120.239c0,11.347,1.336,19.887,4.007,25.622
		c4.733,10.128,14.02,15.188,27.86,15.188c17.723,0,29.864-7.195,36.422-21.594c3.397-7.807,5.098-18.118,5.098-30.932v-108.524
		h52.893v199.483h-50.695v-28.187c-0.485,0.613-1.704,2.444-3.649,5.49c-1.945,3.052-4.26,5.735-6.933,8.053
		c-8.153,7.32-16.032,12.325-23.635,15.006c-7.606,2.684-16.518,4.026-26.737,4.026c-29.441,0-49.271-10.614-59.494-31.844
		c-5.719-11.713-8.572-28.977-8.572-51.792v-120.238h53.438L919.935,1042.725L919.935,1042.725z M1169.361,1120.87
		c9.707-1.22,16.652-2.746,20.832-4.575c7.497-3.171,11.245-8.113,11.245-14.824c0-8.172-2.876-13.817-8.627-16.928
		c-5.751-3.111-14.193-4.668-25.321-4.668c-12.491,0-21.336,3.052-26.529,9.15c-3.712,4.518-6.186,10.614-7.419,18.303h-50.328
		c1.102-17.446,6.001-31.784,14.705-43.011c13.844-17.566,37.615-26.352,71.313-26.352c21.936,0,41.416,4.33,58.451,12.992
		c17.031,8.666,25.548,25.011,25.548,49.047v91.507c0,6.346,0.121,14.033,0.365,23.062c0.369,6.834,1.402,11.469,3.111,13.905
		c1.707,2.444,4.27,4.455,7.688,6.041v7.688h-56.737c-1.585-4.026-2.685-7.808-3.294-11.348c-0.61-3.537-1.095-7.563-1.464-12.078
		c-7.24,7.809-15.587,14.457-25.035,19.947c-11.289,6.465-24.055,9.698-38.289,9.698c-18.162,0-33.164-5.153-45.006-15.464
		c-11.845-10.309-17.765-24.918-17.765-43.832c0-24.523,9.524-42.276,28.575-53.256c10.449-5.979,25.813-10.249,46.094-12.812
		L1169.361,1120.87z M1201.253,1145.211c-3.341,2.075-6.713,3.752-10.112,5.032c-3.402,1.28-8.07,2.472-14.007,3.569l-11.873,2.195
		c-11.129,1.952-19.12,4.335-23.974,7.139c-8.217,4.759-12.323,12.142-12.323,22.146c0,8.906,2.51,15.345,7.53,19.306
		c5.015,3.968,11.115,5.949,18.302,5.949c11.398,0,21.897-3.294,31.498-9.883c9.602-6.587,14.588-18.604,14.959-36.056V1145.211
		L1201.253,1145.211z M1390.815,1042.541c12.67,5.247,22.905,14.887,30.703,28.916v-28.732h50.881v189.234
		c0,25.743-4.335,45.14-12.994,58.198c-14.887,22.446-43.438,33.674-85.651,33.674c-25.501,0-46.304-5.004-62.407-15.008
		c-16.105-10.005-25.011-24.952-26.72-44.837h56.734c1.462,6.099,3.843,10.491,7.138,13.176c5.608,4.762,15.064,7.138,28.365,7.138
		c18.788,0,31.355-6.285,37.701-18.852c4.146-8.05,6.225-21.594,6.225-40.627v-12.812c-5.006,8.541-10.373,14.946-16.107,19.216
		c-10.372,7.936-23.853,11.898-40.443,11.898c-25.623,0-46.093-8.996-61.404-26.995c-15.311-17.995-22.967-42.366-22.967-73.111
		c0-29.648,7.371-54.568,22.115-74.761c14.745-20.191,35.644-30.287,62.695-30.287
		C1374.668,1037.967,1383.379,1039.493,1390.815,1042.541z M1408.576,1185.567c8.388-9.211,12.576-23.886,12.576-44.017
		c0-18.909-3.979-33.309-11.938-43.189c-7.957-9.882-18.618-14.826-31.979-14.826c-18.228,0-30.803,8.602-37.728,25.807
		c-3.646,9.15-5.469,20.438-5.469,33.857c0,11.591,1.942,21.901,5.832,30.93c7.045,16.837,19.684,25.259,37.908,25.259
		C1389.928,1199.384,1400.195,1194.778,1408.576,1185.567z M1646.121,1046.766c13.914,6.234,25.407,16.07,34.474,29.511
		c8.17,11.854,13.469,25.601,15.892,41.241c1.405,9.166,1.976,22.359,1.719,39.591h-145.289
		c0.809,20.012,7.764,34.039,20.862,42.092c7.964,5.005,17.549,7.505,28.759,7.505c11.882,0,21.535-3.048,28.961-9.152
		c4.051-3.294,7.631-7.869,10.734-13.725h53.251c-1.406,11.833-7.849,23.854-19.337,36.053c-17.869,19.399-42.885,29.1-75.048,29.1
		c-26.55,0-49.972-8.182-70.267-24.547c-20.295-16.36-30.44-42.983-30.44-79.86c0-34.557,9.16-61.059,27.481-79.494
		c18.317-18.439,42.099-27.663,71.336-27.663C1616.57,1037.416,1632.207,1040.534,1646.121,1046.766z M1568.094,1091.822
		c-7.371,7.6-12.002,17.892-13.896,30.878h89.86c-0.95-13.845-5.579-24.354-13.896-31.522c-8.315-7.169-18.63-10.753-30.937-10.753
		C1585.841,1080.426,1575.463,1084.226,1568.094,1091.822z"/>
</g>
</svg>
